<svg width="120" height="120" viewBox="0 0 120 120" fill="none" xmlns="http://www.w3.org/2000/svg">
<path d="M111.951 30.6321C106.586 21.2086 99.3083 13.7481 90.1162 8.24873C80.9227 2.74911 70.8862 0 59.9995 0C49.1141 0 39.0743 2.74995 29.8827 8.24873C20.6898 13.7478 13.4123 21.2086 8.04696 30.6321C2.68241 40.0552 0 50.3454 0 61.5023C0 74.9042 3.81442 86.9556 11.4452 97.6595C19.0751 108.364 28.9319 115.771 41.0146 119.882C42.4211 120.15 43.4623 119.961 44.1392 119.322C44.8165 118.682 45.1547 117.88 45.1547 116.921C45.1547 116.76 45.1413 115.32 45.1153 112.596C45.0885 109.873 45.0759 107.497 45.0759 105.47L43.2789 105.789C42.1332 106.004 40.6879 106.095 38.943 106.069C37.1988 106.044 35.3882 105.857 33.5136 105.508C31.6381 105.163 29.8937 104.362 28.279 103.108C26.6651 101.853 25.5194 100.211 24.8422 98.1834L24.061 96.3406C23.5402 95.1137 22.7204 93.7508 21.6005 92.2569C20.4805 90.7616 19.3479 89.7479 18.2022 89.2141L17.6553 88.8127C17.2908 88.546 16.9526 88.2242 16.6398 87.8509C16.3273 87.4776 16.0934 87.104 15.9371 86.7298C15.7806 86.3553 15.9103 86.0482 16.3276 85.8072C16.7449 85.5663 17.499 85.4493 18.5933 85.4493L20.1551 85.6886C21.1969 85.9026 22.4854 86.5418 24.0224 87.6102C25.5586 88.6778 26.8214 90.0657 27.8111 91.7733C29.0096 93.9628 30.4535 95.6312 32.1471 96.7793C33.8392 97.9273 35.5453 98.5004 37.2637 98.5004C38.9821 98.5004 40.4663 98.3669 41.7168 98.1012C42.9659 97.8342 44.1379 97.4328 45.2321 96.8993C45.7008 93.3208 46.9771 90.5717 49.0597 88.65C46.0913 88.3303 43.4226 87.8487 41.0521 87.2083C38.683 86.5671 36.2348 85.5265 33.7092 84.0836C31.1822 82.6427 29.0859 80.8535 27.4198 78.7189C25.7534 76.5832 24.3858 73.7794 23.3189 70.31C22.2514 66.8392 21.7176 62.8354 21.7176 58.2976C21.7176 51.8365 23.7753 46.3382 27.8899 41.7999C25.9624 36.9423 26.1444 31.4968 28.4363 25.464C29.9468 24.9829 32.1867 25.3439 35.1551 26.5447C38.124 27.7461 40.2977 28.7752 41.6785 29.6285C43.0592 30.4814 44.1655 31.2043 44.999 31.7905C49.8436 30.4029 54.8431 29.709 59.9989 29.709C65.1547 29.709 70.1553 30.4029 75.0002 31.7905L77.9688 29.8694C79.9989 28.5875 82.3962 27.4128 85.1549 26.345C87.9153 25.2777 90.0261 24.9838 91.4851 25.4648C93.828 31.4979 94.0368 36.9431 92.1087 41.8007C96.2231 46.3391 98.2816 51.8387 98.2816 58.2985C98.2816 62.8363 97.7458 66.8527 96.68 70.3501C95.6129 73.8481 94.2335 76.6491 92.5414 78.759C90.8473 80.8686 88.7376 82.6438 86.212 84.0844C83.6858 85.5262 81.2368 86.5668 78.8677 87.208C76.4975 87.8492 73.8288 88.3311 70.8604 88.6514C73.5677 91.053 74.9217 94.8439 74.9217 100.022V116.918C74.9217 117.878 75.2473 118.68 75.8991 119.32C76.5501 119.959 77.5781 120.147 78.9846 119.88C91.0689 115.769 100.926 108.362 108.555 97.6572C116.184 86.9533 120 74.9019 120 61.5C119.997 50.3445 117.313 40.0552 111.951 30.6321Z" fill="black"/>
</svg>
