<svg width="128" height="128" viewBox="0 0 128 128" fill="none" xmlns="http://www.w3.org/2000/svg">
<g filter="url(#filter0_d)">
<path d="M65.8631 18.8057C66.8915 22.0889 68.4184 26.2977 70.5401 30.5942L70.9884 30.3728L70.5401 30.5943C72.8458 35.2594 75.4342 39.6457 77.4449 42.8639C78.4506 44.4735 79.3127 45.7923 79.9237 46.7091C80.2293 47.1676 80.4721 47.5256 80.6389 47.7694C80.7024 47.8622 80.7549 47.9384 80.7956 47.9974L77.1611 97.7405C77.1536 97.7476 77.1457 97.7549 77.1375 97.7625C77.0346 97.8577 76.8722 97.9986 76.6443 98.1702C76.1887 98.5133 75.4705 98.98 74.441 99.4501C72.3838 100.39 69.0714 101.349 64.1107 101.351H64.0973C59.1363 101.349 55.8243 100.39 53.7675 99.4501C52.7382 98.98 52.0202 98.5133 51.5648 98.1702C51.337 97.9986 51.1747 97.8577 51.0718 97.7626C51.0636 97.755 51.0557 97.7476 51.0482 97.7406L47.4131 47.9969C47.4536 47.938 47.506 47.8619 47.5693 47.7692C47.7359 47.5254 47.9786 47.1674 48.284 46.709C48.8948 45.7921 49.7567 44.4733 50.7624 42.8636C52.773 39.6454 55.3617 35.2591 57.6679 30.5944L57.668 30.5942C59.7988 26.2812 61.3288 22.0546 62.3571 18.7658V57.3789C60.7431 58.0307 59.5921 59.5959 59.5921 61.4504C59.5921 63.8843 61.5648 65.8583 64.0006 65.8583C66.4337 65.8583 68.4091 63.8858 68.4091 61.4504C68.4091 59.6806 67.3622 58.1683 65.8631 57.4663V18.8057ZM63.9994 119.5C31.1917 119.5 4.5 92.81 4.5 60C4.5 27.193 31.1917 0.5 63.9994 0.5C96.8119 0.5 123.5 27.193 123.5 60C123.5 92.81 96.8119 119.5 63.9994 119.5ZM63.9994 7.13126C34.8471 7.13126 11.129 30.8452 11.129 60C11.129 89.1542 34.847 112.871 63.9994 112.871C93.1572 112.871 116.875 89.1542 116.875 60C116.875 30.8451 93.1572 7.13126 63.9994 7.13126Z" fill="#333333" stroke="black"/>
</g>
<defs>
<filter id="filter0_d" x="0" y="0" width="128" height="128" filterUnits="userSpaceOnUse" color-interpolation-filters="sRGB">
<feFlood flood-opacity="0" result="BackgroundImageFix"/>
<feColorMatrix in="SourceAlpha" type="matrix" values="0 0 0 0 0 0 0 0 0 0 0 0 0 0 0 0 0 0 127 0"/>
<feOffset dy="4"/>
<feGaussianBlur stdDeviation="2"/>
<feColorMatrix type="matrix" values="0 0 0 0 0 0 0 0 0 0 0 0 0 0 0 0 0 0 0.25 0"/>
<feBlend mode="normal" in2="BackgroundImageFix" result="effect1_dropShadow"/>
<feBlend mode="normal" in="SourceGraphic" in2="effect1_dropShadow" result="shape"/>
</filter>
</defs>
</svg>
